<?xml version="1.0" encoding="utf-8"?>
<svg xmlns="http://www.w3.org/2000/svg"
	xmlns:xlink="http://www.w3.org/1999/xlink"
	width="11px" height="6px" viewBox="0 0 11 6">
<path fillRule="evenodd" d="M 10.95 0.29C 10.95 0.29 11.66 1 11.66 1 11.66 1 6 6.66 6 6.66 6 6.66 5.29 5.95 5.29 5.95 5.29 5.95 10.95 0.29 10.95 0.29M 6.71 5.95C 6.71 5.95 6 6.66 6 6.66 6 6.66 0.34 1 0.34 1 0.34 1 1.05 0.29 1.05 0.29 1.05 0.29 6.71 5.95 6.71 5.95M 6 6.66C 6 6.66 6.71 5.95 6.71 5.95 6.71 5.95 6 6.66 6 6.66 6 6.66 6 6.66 6 6.66ZM 6 6.66C 6 6.66 5.29 5.95 5.29 5.95 5.29 5.95 6 6.66 6 6.66 6 6.66 6 6.66 6 6.66Z" fill="rgb(75,81,89)"/></svg>